<?xml version="1.0" encoding="UTF-8" standalone="yes"?>
<!DOCTYPE svg PUBLIC "-//W3C//DTD SVG 1.1//EN" "http://www.w3.org/Graphics/SVG/1.1/DTD/svg11.dtd">

<svg width="860" height="265" viewBox="0 0 860 265" xmlns="http://www.w3.org/2000/svg" xmlns:xlink="http://www.w3.org/1999/xlink" version="1.1" baseProfile="full">
    <g transform="scale(1,-1) translate(0,-265)">
        <path d="M 1.000000 1.000000 L 861.000000 1.000000 L 861.000000 266.000000 L 1.000000 266.000000 Z" transform="scale(1.000000,1.000000) translate(-1.000000,-1.000000)" opacity="0.000000"></path>
        <path d="M 28.600000 1.900000 L 28.600000 61.900000 L 1.000000 61.900000 L 1.000000 74.600000 L 68.900000 74.600000 L 68.900000 61.900000 L 41.300000 61.900000 L 41.300000 1.900000 Z M 144.800000 1.900000 L 126.400000 22.100000 L 99.200000 22.100000 L 99.200000 33.300000 L 129.500000 33.300000 Q 136.400000 33.300000 139.900000 37.050000 Q 143.400000 40.800000 143.400000 47.900000 Q 143.400000 55.000000 139.750000 58.450000 Q 136.100000 61.900000 129.500000 61.900000 L 89.900000 61.900000 L 89.900000 1.900000 L 77.300000 1.900000 L 77.300000 74.600000 L 129.500000 74.600000 Q 135.700000 74.600000 140.600000 72.750000 Q 145.500000 70.900000 148.900000 67.450000 Q 152.300000 64.000000 154.100000 59.100000 Q 155.900000 54.200000 155.900000 48.100000 Q 155.900000 39.000000 151.950000 32.850000 Q 148.000000 26.700000 140.900000 24.000000 L 162.800000 1.900000 Z M 245.200000 1.900000 L 234.300000 20.200000 L 199.900000 20.200000 L 205.900000 30.500000 L 228.200000 30.500000 L 212.000000 57.700000 L 179.000000 1.900000 L 164.500000 1.900000 L 206.300000 71.500000 Q 207.400000 73.400000 208.900000 74.500000 Q 210.400000 75.600000 212.500000 75.600000 Q 214.600000 75.600000 216.050000 74.500000 Q 217.500000 73.400000 218.600000 71.500000 L 260.500000 1.900000 Z M 280.100000 55.100000 L 280.100000 1.900000 L 268.000000 1.900000 L 268.000000 67.900000 Q 268.000000 71.400000 269.750000 73.450000 Q 271.500000 75.500000 274.500000 75.500000 Q 275.900000 75.500000 277.200000 74.900000 Q 278.500000 74.300000 279.900000 72.900000 L 331.200000 22.000000 L 331.200000 75.200000 L 343.300000 75.200000 L 343.300000 8.600000 Q 343.300000 5.000000 341.550000 3.000000 Q 339.800000 1.000000 337.000000 1.000000 Q 333.900000 1.000000 331.200000 3.700000 Z M 355.600000 1.900000 L 355.600000 14.600000 L 410.100000 14.600000 Q 415.200000 14.600000 417.950000 17.200000 Q 420.700000 19.800000 420.700000 24.100000 Q 420.700000 28.800000 417.950000 31.150000 Q 415.200000 33.500000 410.100000 33.500000 L 376.700000 33.500000 Q 371.600000 33.500000 367.450000 35.050000 Q 363.300000 36.600000 360.450000 39.350000 Q 357.600000 42.100000 356.050000 45.900000 Q 354.500000 49.700000 354.500000 54.200000 Q 354.500000 58.600000 355.950000 62.350000 Q 357.400000 66.100000 360.250000 68.800000 Q 363.100000 71.500000 367.300000 73.050000 Q 371.500000 74.600000 376.900000 74.600000 L 429.100000 74.600000 L 429.100000 61.900000 L 376.900000 61.900000 Q 372.500000 61.900000 370.100000 59.550000 Q 367.700000 57.200000 367.700000 53.000000 Q 367.700000 48.800000 370.150000 46.500000 Q 372.600000 44.200000 376.800000 44.200000 L 410.100000 44.200000 Q 421.200000 44.200000 426.950000 39.000000 Q 432.700000 33.800000 432.700000 23.200000 Q 432.700000 18.600000 431.300000 14.700000 Q 429.900000 10.800000 427.100000 7.950000 Q 424.300000 5.100000 420.050000 3.500000 Q 415.800000 1.900000 410.100000 1.900000 Z M 531.800000 1.900000 L 531.800000 74.600000 L 544.500000 74.600000 L 544.500000 14.600000 L 593.400000 14.600000 L 593.400000 1.900000 Z M 603.200000 1.900000 L 603.200000 74.600000 L 615.900000 74.600000 L 615.900000 1.900000 Z M 641.000000 55.100000 L 641.000000 1.900000 L 628.900000 1.900000 L 628.900000 67.900000 Q 628.900000 71.400000 630.650000 73.450000 Q 632.400000 75.500000 635.400000 75.500000 Q 636.800000 75.500000 638.100000 74.900000 Q 639.400000 74.300000 640.800000 72.900000 L 692.100000 22.000000 L 692.100000 75.200000 L 704.200000 75.200000 L 704.200000 8.600000 Q 704.200000 5.000000 702.450000 3.000000 Q 700.700000 1.000000 697.900000 1.000000 Q 694.800000 1.000000 692.100000 3.700000 Z M 776.400000 1.900000 L 735.700000 33.900000 Q 734.000000 35.200000 733.550000 36.450000 Q 733.100000 37.700000 733.100000 39.200000 Q 733.100000 40.900000 733.700000 42.200000 Q 734.300000 43.500000 736.300000 45.000000 L 774.800000 74.600000 L 794.300000 74.600000 L 746.700000 39.100000 L 795.800000 1.900000 Z M 716.500000 1.900000 L 716.500000 74.600000 L 729.200000 74.600000 L 729.200000 1.900000 Z" transform="scale(1.000000,1.000000) translate(31.600000,131.500003)" fill="#000000" opacity="1.000000"></path>
        <path d="M 38.300000 19.650000 C 38.300000 29.950110 29.950110 38.300000 19.650000 38.300000 C 9.349890 38.300000 1.000000 29.950110 1.000000 19.650000 C 1.000000 9.349890 9.349890 1.000000 19.650000 1.000000 C 29.950110 1.000000 38.300000 9.349890 38.300000 19.650000 Z" transform="scale(1.000000,1.000000) translate(496.133814,131.500000)" fill="#17009b" opacity="1.000000"></path>
        <path d="M 18.848049 2.650525 Q 17.701076 1.783300 16.540112 1.391650 Q 15.379150 1.000000 14.008375 1.000000 Q 12.497725 1.000000 11.658475 1.769312 Q 10.819225 2.538625 10.819225 3.937375 Q 10.819225 4.692700 11.043025 5.587900 L 13.448875 14.483951 L 10.007950 14.483951 L 6.902725 5.056375 Q 6.511075 3.881425 6.301262 3.126100 Q 6.091450 2.370775 5.951575 1.503550 L 1.867225 1.503550 Q 2.063050 1.839250 2.216913 2.160962 Q 2.370775 2.482675 2.538625 2.874325 Q 2.706475 3.265975 2.902300 3.783513 Q 3.098125 4.301050 3.321925 4.972450 L 6.483100 14.483951 Q 5.559925 14.455975 4.986437 14.302112 Q 4.412950 14.148250 3.853450 13.784576 Q 3.461800 13.476850 3.196037 13.169125 Q 2.930275 12.861400 2.622550 12.245950 L 1.000000 14.903576 Q 1.587475 15.742826 2.119000 16.190424 Q 2.650525 16.638025 3.461800 17.001701 Q 4.021300 17.253475 4.790613 17.393350 Q 5.559925 17.533225 6.343225 17.533225 L 17.505250 17.533225 Q 18.176650 17.533225 18.694187 17.547212 Q 19.211725 17.561201 19.631350 17.589174 Q 20.050975 17.617150 20.414650 17.659112 Q 20.778326 17.701076 21.197951 17.757025 L 20.302750 14.288125 Q 19.687299 14.400025 19.071850 14.441987 Q 18.456400 14.483951 17.645125 14.483951 L 16.945750 14.483951 L 14.679775 6.035500 Q 14.623826 5.811700 14.567875 5.531950 Q 14.511924 5.252200 14.511924 5.112325 Q 14.511924 4.412950 15.267250 4.412950 Q 16.498150 4.412950 17.980826 5.643850 Z" transform="scale(1.000000,1.000000) translate(504.684869,141.771477)" fill="#ffffff" opacity="1.000000"></path>
        <path d="M 1.000000 5.000000 L 795.800000 5.000000 L 795.800000 1.000000 L 1.000000 1.000000 L 1.000000 5.000000 Z" transform="scale(1.000000,1.000000) translate(31.600000,109.382353)" opacity="1.000000"></path>
        <path d="M 4.867188 10.023438 L 1.000000 10.023438 L 1.000000 43.597656 L 4.867188 43.597656 L 4.867188 29.242188 Q 6.097656 31.146484 7.254883 32.054688 Q 8.412109 32.962891 9.671875 33.431641 Q 10.931641 33.900391 12.484375 33.900391 Q 14.652344 33.900391 16.395508 33.006836 Q 18.138672 32.113281 19.090820 30.370117 Q 20.042969 28.626953 20.042969 24.818359 L 20.042969 10.023438 L 16.175781 10.023438 L 16.175781 23.148438 Q 16.175781 26.283203 15.765625 27.572266 Q 15.355469 28.861328 14.183594 29.608398 Q 13.011719 30.355469 11.517578 30.355469 Q 9.818359 30.355469 8.280273 29.359375 Q 6.742188 28.363281 5.804688 26.561523 Q 4.867188 24.759766 4.867188 21.449219 Z M 57.552734 13.304688 L 57.552734 10.052734 Q 54.740234 9.378906 53.246094 9.378906 Q 51.078125 9.378906 49.334961 10.257812 Q 47.591797 11.136719 46.683594 12.791992 Q 45.775391 14.447266 45.775391 18.080078 L 45.775391 30.033203 L 41.761719 30.033203 L 41.761719 33.255859 L 45.775391 33.255859 L 45.775391 38.763672 L 49.671875 38.763672 L 49.671875 33.255859 L 56.439453 33.255859 L 56.439453 30.033203 L 49.671875 30.033203 L 49.671875 19.193359 Q 49.671875 16.117188 50.140625 14.916016 Q 50.609375 13.714844 51.634766 13.158203 Q 52.660156 12.601562 54.095703 12.601562 Q 55.238281 12.601562 57.552734 13.304688 Z M 93.949219 13.304688 L 93.949219 10.052734 Q 91.136719 9.378906 89.642578 9.378906 Q 87.474609 9.378906 85.731445 10.257812 Q 83.988281 11.136719 83.080078 12.791992 Q 82.171875 14.447266 82.171875 18.080078 L 82.171875 30.033203 L 78.158203 30.033203 L 78.158203 33.255859 L 82.171875 33.255859 L 82.171875 38.763672 L 86.068359 38.763672 L 86.068359 33.255859 L 92.835938 33.255859 L 92.835938 30.033203 L 86.068359 30.033203 L 86.068359 19.193359 Q 86.068359 16.117188 86.537109 14.916016 Q 87.005859 13.714844 88.031250 13.158203 Q 89.056641 12.601562 90.492188 12.601562 Q 91.634766 12.601562 93.949219 13.304688 Z M 119.710938 1.000000 L 115.843750 1.000000 L 115.843750 33.255859 L 119.710938 33.255859 L 119.710938 29.212891 Q 120.912109 31.292969 122.010742 32.142578 Q 123.109375 32.992188 124.471680 33.446289 Q 125.833984 33.900391 127.298828 33.900391 Q 129.964844 33.900391 132.162109 32.450195 Q 134.359375 31.000000 135.575195 28.128906 Q 136.791016 25.257812 136.791016 21.683594 Q 136.791016 16.380859 134.242188 12.879883 Q 131.693359 9.378906 127.123047 9.378906 Q 125.628906 9.378906 124.310547 9.803711 Q 122.992188 10.228516 121.966797 11.078125 Q 120.941406 11.927734 119.710938 14.066406 Z M 119.710938 21.625000 Q 119.710938 17.669922 121.410156 15.135742 Q 123.109375 12.601562 126.214844 12.601562 Q 129.056641 12.601562 130.916992 14.842773 Q 132.777344 17.083984 132.777344 21.566406 Q 132.777344 26.781250 130.799805 28.817383 Q 128.822266 30.853516 126.302734 30.853516 Q 124.457031 30.853516 122.875000 29.740234 Q 121.292969 28.626953 120.501953 26.429688 Q 119.710938 24.232422 119.710938 21.625000 Z M 165.423828 10.023438 L 159.916016 10.023438 L 159.916016 15.501953 L 165.423828 15.501953 Z M 165.423828 27.777344 L 159.916016 27.777344 L 159.916016 33.255859 L 165.423828 33.255859 Z M 191.332031 9.056641 L 187.611328 9.056641 L 204.984375 43.275391 L 208.587891 43.275391 Z M 231.742188 9.056641 L 228.021484 9.056641 L 245.394531 43.275391 L 248.998047 43.275391 Z M 274.759766 10.023438 L 268.109375 33.255859 L 272.152344 33.255859 L 276.253906 18.812500 L 276.810547 15.355469 L 277.250000 15.355469 L 277.835938 18.812500 L 281.996094 33.255859 L 285.863281 33.255859 L 290.492188 18.841797 L 291.283203 15.355469 L 291.693359 15.355469 L 292.308594 18.841797 L 296.410156 33.255859 L 300.072266 33.255859 L 293.421875 10.023438 L 289.525391 10.023438 L 284.720703 25.199219 L 284.076172 28.568359 L 283.753906 28.568359 L 283.080078 25.199219 L 278.685547 10.023438 Z M 325.511719 10.023438 L 318.861328 33.255859 L 322.904297 33.255859 L 327.005859 18.812500 L 327.562500 15.355469 L 328.001953 15.355469 L 328.587891 18.812500 L 332.748047 33.255859 L 336.615234 33.255859 L 341.244141 18.841797 L 342.035156 15.355469 L 342.445312 15.355469 L 343.060547 18.841797 L 347.162109 33.255859 L 350.824219 33.255859 L 344.173828 10.023438 L 340.277344 10.023438 L 335.472656 25.199219 L 334.828125 28.568359 L 334.505859 28.568359 L 333.832031 25.199219 L 329.437500 10.023438 Z M 376.263672 10.023438 L 369.613281 33.255859 L 373.656250 33.255859 L 377.757812 18.812500 L 378.314453 15.355469 L 378.753906 15.355469 L 379.339844 18.812500 L 383.500000 33.255859 L 387.367188 33.255859 L 391.996094 18.841797 L 392.787109 15.355469 L 393.197266 15.355469 L 393.812500 18.841797 L 397.914062 33.255859 L 401.576172 33.255859 L 394.925781 10.023438 L 391.029297 10.023438 L 386.224609 25.199219 L 385.580078 28.568359 L 385.257812 28.568359 L 384.583984 25.199219 L 380.189453 10.023438 Z M 428.919922 10.023438 L 423.412109 10.023438 L 423.412109 15.501953 L 428.919922 15.501953 Z M 467.396484 13.304688 L 467.396484 10.052734 Q 464.583984 9.378906 463.089844 9.378906 Q 460.921875 9.378906 459.178711 10.257812 Q 457.435547 11.136719 456.527344 12.791992 Q 455.619141 14.447266 455.619141 18.080078 L 455.619141 30.033203 L 451.605469 30.033203 L 451.605469 33.255859 L 455.619141 33.255859 L 455.619141 38.763672 L 459.515625 38.763672 L 459.515625 33.255859 L 466.283203 33.255859 L 466.283203 30.033203 L 459.515625 30.033203 L 459.515625 19.193359 Q 459.515625 16.117188 459.984375 14.916016 Q 460.453125 13.714844 461.478516 13.158203 Q 462.503906 12.601562 463.939453 12.601562 Q 465.082031 12.601562 467.396484 13.304688 Z M 493.451172 10.023438 L 489.583984 10.023438 L 489.583984 33.255859 L 493.451172 33.255859 L 493.451172 29.154297 Q 494.417969 30.941406 495.545898 31.908203 Q 496.673828 32.875000 497.962891 33.387695 Q 499.251953 33.900391 500.570312 33.900391 Q 501.771484 33.900391 502.650391 33.548828 L 502.650391 29.535156 Q 501.273438 30.208984 499.750000 30.208984 Q 497.552734 30.208984 495.501953 28.290039 Q 493.451172 26.371094 493.451172 21.507812 Z M 537.904297 10.023438 Q 537.289062 11.898438 537.289062 13.246094 Q 534.740234 10.726562 532.953125 10.052734 Q 531.166016 9.378906 529.496094 9.378906 Q 526.742188 9.378906 524.750000 11.078125 Q 522.757812 12.777344 522.757812 15.736328 Q 522.757812 19.105469 525.555664 20.936523 Q 528.353516 22.767578 535.208984 24.115234 L 537.289062 24.496094 L 537.289062 27.132812 Q 537.289062 29.271484 535.853516 30.135742 Q 534.417969 31.000000 532.396484 31.000000 Q 529.994141 31.000000 528.631836 29.930664 Q 527.269531 28.861328 527.269531 27.455078 L 527.269531 27.132812 L 523.080078 27.132812 L 523.080078 27.425781 Q 523.080078 28.978516 524.383789 30.619141 Q 525.687500 32.259766 527.840820 33.094727 Q 529.994141 33.929688 532.542969 33.929688 Q 535.091797 33.929688 537.171875 33.138672 Q 539.251953 32.347656 540.204102 31.000000 Q 541.156250 29.652344 541.156250 25.960938 L 541.156250 16.937500 Q 541.156250 15.443359 541.229492 13.817383 Q 541.302734 12.191406 541.976562 10.023438 Z M 537.289062 21.742188 L 536.117188 21.478516 Q 530.228516 20.042969 528.587891 18.739258 Q 526.947266 17.435547 526.947266 15.648438 Q 526.947266 14.740234 527.430664 13.949219 Q 527.914062 13.158203 528.880859 12.718750 Q 529.847656 12.279297 530.785156 12.279297 Q 532.396484 12.279297 533.963867 13.231445 Q 535.531250 14.183594 536.410156 15.765625 Q 537.289062 17.347656 537.289062 19.457031 Z M 568.470703 10.023438 L 564.603516 10.023438 L 564.603516 33.255859 L 568.470703 33.255859 L 568.470703 29.242188 Q 569.701172 31.146484 570.858398 32.054688 Q 572.015625 32.962891 573.275391 33.431641 Q 574.535156 33.900391 576.087891 33.900391 Q 578.255859 33.900391 579.999023 33.006836 Q 581.742188 32.113281 582.694336 30.370117 Q 583.646484 28.626953 583.646484 24.818359 L 583.646484 10.023438 L 579.779297 10.023438 L 579.779297 23.148438 Q 579.779297 26.283203 579.369141 27.572266 Q 578.958984 28.861328 577.743164 29.608398 Q 576.527344 30.355469 575.121094 30.355469 Q 573.421875 30.355469 571.883789 29.359375 Q 570.345703 28.363281 569.408203 26.561523 Q 568.470703 24.759766 568.470703 21.449219 Z M 605.511719 16.146484 L 609.378906 16.146484 L 609.378906 16.087891 Q 609.378906 14.564453 610.536133 13.583008 Q 611.693359 12.601562 614.417969 12.601562 Q 616.791016 12.601562 618.285156 13.773438 Q 619.779297 14.945312 619.779297 16.527344 Q 619.779297 18.666016 616.849609 19.544922 L 614.886719 20.160156 L 613.568359 20.570312 L 610.902344 21.390625 Q 606.302734 23.089844 606.302734 26.986328 Q 606.302734 29.740234 608.529297 31.820312 Q 610.755859 33.900391 615.121094 33.900391 Q 619.457031 33.900391 621.288086 32.127930 Q 623.119141 30.355469 623.119141 28.187500 L 623.119141 28.099609 L 619.222656 28.099609 L 619.222656 28.187500 Q 619.222656 29.359375 618.050781 30.018555 Q 616.878906 30.677734 614.916016 30.677734 Q 612.601562 30.677734 611.356445 29.710938 Q 610.111328 28.744141 610.111328 27.337891 Q 610.111328 26.253906 610.916992 25.580078 Q 611.722656 24.906250 613.626953 24.349609 L 615.472656 23.822266 L 616.849609 23.441406 Q 619.662109 22.621094 620.365234 22.298828 Q 621.068359 21.976562 621.771484 21.449219 Q 622.738281 20.687500 623.207031 19.632812 Q 623.675781 18.578125 623.675781 17.171875 Q 623.675781 13.861328 621.317383 11.620117 Q 618.958984 9.378906 614.417969 9.378906 Q 611.546875 9.378906 609.657227 10.228516 Q 607.767578 11.078125 606.639648 12.586914 Q 605.511719 14.095703 605.511719 16.087891 Z M 652.308594 10.023438 L 646.800781 10.023438 L 646.800781 15.501953 L 652.308594 15.501953 Z M 680.443359 10.023438 L 676.576172 10.023438 L 676.576172 43.597656 L 680.443359 43.597656 Z M 704.095703 33.255859 L 707.962891 33.255859 L 707.962891 10.023438 L 704.095703 10.023438 Z M 704.095703 38.412109 L 704.095703 42.308594 L 707.962891 42.308594 L 707.962891 38.412109 Z M 735.482422 10.023438 L 731.615234 10.023438 L 731.615234 33.255859 L 735.482422 33.255859 L 735.482422 29.242188 Q 736.712891 31.146484 737.870117 32.054688 Q 739.027344 32.962891 740.287109 33.431641 Q 741.546875 33.900391 743.099609 33.900391 Q 745.267578 33.900391 747.010742 33.006836 Q 748.753906 32.113281 749.706055 30.370117 Q 750.658203 28.626953 750.658203 24.818359 L 750.658203 10.023438 L 746.791016 10.023438 L 746.791016 23.148438 Q 746.791016 26.283203 746.380859 27.572266 Q 745.970703 28.861328 744.754883 29.608398 Q 743.539062 30.355469 742.132812 30.355469 Q 740.433594 30.355469 738.895508 29.359375 Q 737.357422 28.363281 736.419922 26.561523 Q 735.482422 24.759766 735.482422 21.449219 Z M 778.001953 10.023438 L 773.958984 10.023438 L 773.958984 43.597656 L 778.001953 43.597656 L 778.001953 22.181641 L 788.314453 33.255859 L 792.796875 33.255859 L 782.718750 22.474609 L 793.177734 10.023438 L 788.314453 10.023438 L 778.001953 22.181641 Z" transform="scale(1.000000,1.000000) translate(32.911133,48.664698)" fill="#17009b" opacity="1.000000"></path>
    </g>
</svg>